<svg width="500" height="650" viewBox="0 0 500 650" fill="none" xmlns="http://www.w3.org/2000/svg">
<path d="M0 0H500V650H0V0Z" fill="#74B7BE"/>
<ellipse cx="252" cy="223" rx="221" ry="216" fill="#53939A"/>
<path d="M127 470.325C191.019 470.325 243.703 520.013 250.301 583.789C264.673 605.625 273 631.535 273 659.325C273 737.197 207.634 800.325 127 800.325C46.3664 800.325 -19 737.197 -19 659.325C-19 631.535 -10.6739 605.624 3.69824 583.789C10.2958 520.013 62.9813 470.325 127 470.325Z" fill="#747474"/>
<ellipse cx="124" cy="679.825" rx="108" ry="106.5" fill="white"/>
<path d="M88.2116 639.745C89.3477 646.188 77.0985 639.644 64.8609 641.802C52.6233 643.96 45.0313 654.002 43.8953 647.559C42.7592 641.116 51.3336 629.317 63.5712 627.159C75.8088 625.002 87.0755 633.302 88.2116 639.745Z" fill="#747474"/>
<path d="M205.685 647.344C204.549 653.787 195.276 643.448 183.039 641.29C170.801 639.133 160.232 645.973 161.368 639.53C162.504 633.087 174.597 624.932 186.835 627.09C199.072 629.248 206.821 640.901 205.685 647.344Z" fill="#747474"/>
<path d="M147.261 636.545C147.261 643.087 136.334 634.516 123.908 634.516C111.481 634.516 102.261 643.087 102.261 636.545C102.261 630.003 112.754 619.872 125.18 619.872C137.607 619.872 147.261 630.003 147.261 636.545Z" fill="#747474"/>
<ellipse cx="125.5" cy="536.825" rx="22.5" ry="8.5" fill="#323232"/>
<circle cx="190.5" cy="536.825" r="18.5" fill="white"/>
<circle cx="190.5" cy="536.351" r="6.72784" fill="#3B3B3B"/>
<circle cx="59.5" cy="536.825" r="18.5" fill="white"/>
<circle cx="59.5001" cy="536.351" r="6.72784" fill="#3B3B3B"/>
<path d="M277 579.825C276.613 582 265.5 580.325 254 579.168C238.555 577.615 234.613 574.953 235 572.778C235.387 570.603 254.832 571.114 264.185 572.778C271.797 574.132 277.387 577.65 277 579.825Z" fill="#747474"/>
<path d="M289.128 552.422C289.128 554.079 263.488 558.422 249.128 558.422C234.769 558.422 238.413 558.482 238.413 556.825C238.413 555.168 248.554 549.325 262.913 549.325C277.272 549.325 289.128 550.765 289.128 552.422Z" fill="#747474"/>
<path d="M274.053 531.391C274.287 533.031 249.517 540.953 235.302 542.982C221.087 545.011 224.703 544.556 224.469 542.916C224.234 541.275 233.448 534.058 247.663 532.029C261.878 530 273.819 529.75 274.053 531.391Z" fill="#747474"/>
<path d="M-26.8716 578.825C-26.4846 581 -15.3716 579.325 -3.87158 578.168C11.5739 576.615 15.5155 573.953 15.1285 571.778C14.7415 569.603 -4.7037 570.114 -14.0564 571.778C-21.6688 573.132 -27.2586 576.65 -26.8716 578.825Z" fill="#747474"/>
<path d="M-39 551.422C-39 553.079 -13.3594 557.422 1 557.422C15.3594 557.422 11.7154 557.482 11.7154 555.825C11.7154 554.168 1.57479 548.325 -12.7846 548.325C-27.144 548.325 -39 549.765 -39 551.422Z" fill="#747474"/>
<path d="M-23.9246 530.391C-24.1587 532.031 0.611018 539.953 14.8264 541.982C29.0417 544.011 25.4257 543.556 25.6598 541.916C25.8939 540.275 16.6807 533.058 2.46532 531.029C-11.75 529 -23.6905 528.75 -23.9246 530.391Z" fill="#747474"/>
<path d="M168.963 451.19C171.698 426.419 186.019 389.442 200.595 391.051C215.171 392.66 224.608 430.967 221.873 455.738C219.8 474.517 211.328 480.124 201 481.038V497.325H178V477.892C170.937 474.641 167.138 467.725 168.963 451.19Z" fill="#747474"/>
<path fill-rule="evenodd" clip-rule="evenodd" d="M53.0767 391.051C67.653 389.442 81.9741 426.419 84.7086 451.19C86.5053 467.467 82.8524 474.423 76.0006 477.737V499.325H54.0006V481.131C43.0767 480.579 33.9596 475.316 31.7984 455.738C29.0639 430.967 38.5003 392.66 53.0767 391.051Z" fill="#747474"/>
</svg>
