<svg width="500" height="650" viewBox="0 0 500 650" fill="none" xmlns="http://www.w3.org/2000/svg">
<g clip-path="url(#clip0_18_153)">
<rect width="500" height="650" fill="white"/>
<path d="M0 0H500V650H0V0Z" fill="#74B7BE"/>
<ellipse cx="252" cy="223" rx="221" ry="216" fill="#53939A"/>
<path d="M127 470.325C191.019 470.325 243.703 520.013 250.301 583.789C264.673 605.625 273 631.535 273 659.325C273 737.197 207.634 800.325 127 800.325C46.3664 800.325 -19 737.197 -19 659.325C-19 631.535 -10.6739 605.624 3.69824 583.789C10.2958 520.013 62.9813 470.325 127 470.325Z" fill="#747474"/>
<ellipse cx="124" cy="679.825" rx="108" ry="106.5" fill="white"/>
<path d="M88.2116 639.745C89.3477 646.188 77.0985 639.644 64.8609 641.802C52.6233 643.96 45.0313 654.002 43.8953 647.559C42.7592 641.116 51.3336 629.317 63.5712 627.159C75.8088 625.002 87.0755 633.302 88.2116 639.745Z" fill="#747474"/>
<path d="M205.685 647.344C204.549 653.787 195.276 643.448 183.039 641.29C170.801 639.133 160.232 645.973 161.368 639.53C162.504 633.087 174.597 624.932 186.835 627.09C199.072 629.248 206.821 640.901 205.685 647.344Z" fill="#747474"/>
<path d="M147.261 636.545C147.261 643.087 136.334 634.516 123.908 634.516C111.481 634.516 102.261 643.087 102.261 636.545C102.261 630.003 112.754 619.872 125.18 619.872C137.607 619.872 147.261 630.003 147.261 636.545Z" fill="#747474"/>
<ellipse cx="125.5" cy="536.825" rx="22.5" ry="8.5" fill="#323232"/>
<circle cx="190.5" cy="536.825" r="18.5" fill="white"/>
<circle cx="190.5" cy="536.351" r="6.72784" fill="#3B3B3B"/>
<circle cx="59.5" cy="536.825" r="18.5" fill="white"/>
<circle cx="59.5001" cy="536.351" r="6.72784" fill="#3B3B3B"/>
<path d="M277 579.825C276.613 582 265.5 580.325 254 579.168C238.555 577.615 234.613 574.953 235 572.778C235.387 570.603 254.832 571.114 264.185 572.778C271.797 574.132 277.387 577.65 277 579.825Z" fill="#747474"/>
<path d="M289.128 552.422C289.128 554.079 263.488 558.422 249.128 558.422C234.769 558.422 238.413 558.482 238.413 556.825C238.413 555.168 248.554 549.325 262.913 549.325C277.272 549.325 289.128 550.765 289.128 552.422Z" fill="#747474"/>
<path d="M274.053 531.391C274.287 533.031 249.517 540.953 235.302 542.982C221.087 545.011 224.703 544.556 224.469 542.916C224.234 541.275 233.448 534.058 247.663 532.029C261.878 530 273.819 529.75 274.053 531.391Z" fill="#747474"/>
<path d="M-26.8716 578.825C-26.4846 581 -15.3716 579.325 -3.87158 578.168C11.5739 576.615 15.5155 573.953 15.1285 571.778C14.7415 569.603 -4.7037 570.114 -14.0564 571.778C-21.6688 573.132 -27.2586 576.65 -26.8716 578.825Z" fill="#747474"/>
<path d="M-39 551.422C-39 553.079 -13.3594 557.422 1 557.422C15.3594 557.422 11.7154 557.482 11.7154 555.825C11.7154 554.168 1.57479 548.325 -12.7846 548.325C-27.144 548.325 -39 549.765 -39 551.422Z" fill="#747474"/>
<path d="M-23.9246 530.391C-24.1587 532.031 0.611018 539.953 14.8264 541.982C29.0417 544.011 25.4257 543.556 25.6598 541.916C25.8939 540.275 16.6807 533.058 2.46532 531.029C-11.75 529 -23.6905 528.75 -23.9246 530.391Z" fill="#747474"/>
<path d="M168.963 451.19C171.698 426.419 186.019 389.442 200.595 391.051C215.171 392.66 224.608 430.967 221.873 455.738C219.8 474.517 211.328 480.124 201 481.038V497.325H178V477.892C170.937 474.641 167.138 467.725 168.963 451.19Z" fill="#747474"/>
<path fill-rule="evenodd" clip-rule="evenodd" d="M53.0767 391.051C67.653 389.442 81.9741 426.419 84.7086 451.19C86.5053 467.467 82.8524 474.423 76.0006 477.737V499.325H54.0006V481.131C43.0767 480.579 33.9596 475.316 31.7984 455.738C29.0639 430.967 38.5003 392.66 53.0767 391.051Z" fill="#747474"/>
<circle cx="252.052" cy="222.905" r="200" transform="rotate(-16.2821 252.052 222.905)" fill="black"/>
<path d="M198.94 41.849C298.87 12.6614 403.541 70.0095 432.729 169.94C461.916 269.87 404.568 374.541 304.638 403.729C204.708 432.916 100.037 375.568 70.8491 275.638C41.6613 175.708 99.0095 71.0368 198.94 41.849ZM199.22 42.8089C99.82 71.8418 42.7761 175.957 71.809 275.358C100.842 374.758 204.958 431.802 304.358 402.769C403.758 373.736 460.801 269.62 431.769 170.22C402.736 70.82 298.62 13.7761 199.22 42.8089ZM202.941 53.5073C296.245 26.2553 393.975 79.8005 421.227 173.104C448.479 266.407 394.934 364.137 301.63 391.39C208.327 418.642 110.597 365.097 83.3445 271.793C56.0924 178.489 109.638 80.7595 202.941 53.5073ZM203.222 54.4672C110.448 81.5645 57.2071 178.739 84.3044 271.513C111.402 364.286 208.576 417.527 301.35 390.43C394.123 363.332 447.364 266.158 420.267 173.384C393.17 80.611 295.995 27.37 203.222 54.4672ZM205.942 65.8464C292.619 40.5297 383.408 90.2721 408.724 176.949C434.041 263.626 384.299 354.415 297.622 379.731C210.945 405.048 120.156 355.305 94.8393 268.629C69.5227 181.952 119.265 91.1633 205.942 65.8464ZM206.222 66.8063C120.076 91.9683 70.6374 182.202 95.7992 268.348C120.961 354.495 211.195 403.933 297.341 378.772C383.488 353.61 432.926 263.376 407.764 177.229C382.603 91.0826 292.369 41.6445 206.222 66.8063ZM209.943 77.5047C289.993 54.1235 373.841 100.063 397.222 180.113C420.604 260.163 374.664 344.011 294.614 367.392C214.564 390.773 130.716 344.834 107.335 264.784C83.9538 184.734 129.893 100.886 209.943 77.5047ZM210.224 78.4645C130.704 101.691 85.0685 184.984 108.295 264.503C131.521 344.024 214.813 389.659 294.334 366.432C373.854 343.206 419.489 259.914 396.263 180.394C373.036 100.874 289.744 55.2383 210.224 78.4645ZM212.945 89.8435C286.368 68.3979 363.275 110.534 384.721 183.958C406.166 257.381 364.03 334.288 290.606 355.734C217.183 377.179 140.276 335.043 118.83 261.619C97.3848 188.196 139.521 111.289 212.945 89.8435ZM213.225 90.8034C140.332 112.094 98.4996 188.446 119.79 261.339C141.081 334.232 217.433 376.065 290.326 354.774C363.219 333.483 405.052 257.132 383.761 184.238C362.47 111.345 286.119 69.5126 213.225 90.8034ZM216.946 101.502C283.743 81.9917 353.709 120.325 373.219 187.122C392.729 253.919 354.395 323.885 287.599 343.395C220.802 362.905 150.836 324.571 131.326 257.774C111.816 190.978 150.149 121.012 216.946 101.502ZM217.227 102.462C150.96 121.817 112.931 191.227 132.286 257.494C151.641 323.761 221.051 361.79 287.318 342.435C353.585 323.08 391.614 253.669 372.259 187.402C352.904 121.136 283.493 83.1065 217.227 102.462ZM219.948 113.841C280.118 96.2662 343.143 130.797 360.717 190.967C378.292 251.137 343.761 314.162 283.591 331.736C223.421 349.311 160.396 314.78 142.822 254.61C125.247 194.44 159.778 131.415 219.948 113.841ZM220.228 114.8C160.588 132.22 126.362 194.69 143.781 254.33C161.201 313.97 223.671 348.196 283.311 330.776C342.951 313.357 377.177 250.887 359.757 191.247C342.338 131.607 279.868 97.3809 220.228 114.8Z" fill="white"/>
<circle cx="252.416" cy="229.416" r="60" transform="rotate(-16.2821 252.416 229.416)" fill="#3686FF"/>
<circle cx="251.582" cy="228.582" r="43.5822" stroke="#27C840" stroke-width="4"/>
<path d="M239.756 170C242.183 170 244.166 174.11 244.305 179.292C246.504 175.034 249.71 172.423 251.814 173.338C254.122 174.342 254.231 179.21 252.055 184.212C251.782 184.841 251.485 185.442 251.17 186.01C251.45 185.889 251.736 185.774 252.028 185.663C257.126 183.726 261.984 184.063 262.878 186.416C263.772 188.769 260.364 192.247 255.265 194.185C253.409 194.89 251.586 195.291 249.973 195.406C251.226 195.647 252.563 196.048 253.911 196.614C258.94 198.726 262.226 202.318 261.252 204.64C260.278 206.961 255.411 207.131 250.381 205.02C249.663 204.718 248.981 204.384 248.341 204.03C248.689 204.951 248.985 205.952 249.21 207.009C250.347 212.343 249.272 217.093 246.81 217.618C244.348 218.143 241.431 214.243 240.294 208.908C240.24 208.65 240.191 208.393 240.146 208.139C239.991 208.685 239.812 209.239 239.603 209.796C237.689 214.904 234.227 218.328 231.87 217.445C229.512 216.562 229.152 211.705 231.066 206.598C231.306 205.957 231.57 205.342 231.854 204.759C228.006 208.569 223.474 210.223 221.705 208.451C219.926 206.669 221.614 202.101 225.475 198.248C226.018 197.706 226.576 197.207 227.138 196.755C222.516 197.531 218.609 196.57 218.064 194.378C217.457 191.935 221.257 188.889 226.55 187.574C226.905 187.486 227.258 187.408 227.608 187.34C227.32 187.065 227.034 186.778 226.753 186.479C223.026 182.497 221.494 177.875 223.332 176.154C225.169 174.434 229.681 176.267 233.409 180.249C234.162 181.054 234.825 181.886 235.389 182.714C235.265 181.815 235.198 180.862 235.198 179.876C235.198 174.422 237.239 170 239.756 170ZM242.178 188.239C241.476 189.197 240.647 189.752 239.756 189.752C238.978 189.752 238.245 189.329 237.604 188.584C237.59 189.105 237.486 189.569 237.287 189.959C237.394 191.246 236.365 192.665 234.595 193.896C235.024 194.007 235.392 194.205 235.685 194.498C236.747 195.562 236.572 197.62 235.436 199.927C236.621 198.969 237.808 198.577 238.8 198.948C239.539 199.225 240.081 199.893 240.418 200.836C240.904 199.445 241.682 198.515 242.695 198.299C242.763 198.284 242.833 198.274 242.902 198.267C242.835 197.815 242.876 197.387 243.041 196.994C243.505 195.889 244.851 195.272 246.678 195.156C245.539 194.839 244.729 194.262 244.414 193.432C244.201 192.873 244.233 192.251 244.471 191.602C244.287 191.573 244.107 191.525 243.936 191.45C242.929 191.012 242.341 189.839 242.178 188.239Z" fill="#D4F541"/>
<circle cx="239.272" cy="194.311" r="10.6358" fill="#766B31"/>
<path fill-rule="evenodd" clip-rule="evenodd" d="M255.706 266.842C256.781 276.432 267.292 286.183 258.953 287.118C254.556 287.611 251.629 286.387 249.685 283.714C249.334 283.801 248.887 283.867 248.329 283.92C243.734 284.357 240.089 283.211 239.296 274.858C238.593 267.46 242.28 265.038 246.324 264.277C246.932 258.077 249.345 253.03 255.061 252.389C263.4 251.455 254.631 257.252 255.706 266.842Z" fill="#5B058A"/>
<path fill-rule="evenodd" clip-rule="evenodd" d="M263.97 254.295C268.153 254.612 273.599 257.935 273.187 263.373C273.13 264.124 273.151 264.92 273.217 265.732C277.33 269.265 285.276 271.178 282.507 274.215C279.68 277.315 266.244 280.976 262.214 277.301C258.421 273.841 257.422 270.674 259.675 267.728C258.134 265.813 257.151 263.852 257.279 262.168C257.691 256.729 259.786 253.978 263.97 254.295Z" fill="#5B058A"/>
<path d="M280.635 246.706C283.805 247.889 287.057 252.184 287.905 256.117C291.188 256.726 293.39 257.204 292.064 260.755C290.131 265.935 292.63 271.652 287.146 269.605C281.872 267.636 268.513 258.226 269.217 252.9C268.61 250.938 268.489 248.94 269.09 247.328C270.726 242.946 276.327 245.098 280.635 246.706Z" fill="#5B058A"/>
<path fill-rule="evenodd" clip-rule="evenodd" d="M290.866 231.708C294.638 231.874 301.271 236.512 300.994 242.799C300.962 243.531 300.963 244.257 300.98 244.971C302.544 247.019 302.869 249.308 301.232 252.514C301.098 253.692 300.719 254.503 299.852 254.777C295.894 260.495 295.815 256.2 292.342 251.897C291.531 251.239 290.773 250.487 290.126 249.655C289.818 249.405 289.49 249.161 289.143 248.927C282.185 244.236 275.821 248.303 280.98 240.649C284.228 235.831 285.725 234.662 288.125 235.627C288.29 233.201 288.892 231.621 290.866 231.708Z" fill="#5B058A"/>
<circle cx="251" cy="229" r="5" transform="rotate(-16.2821 251 229)" fill="black"/>
<circle cx="454.987" cy="51.1737" r="35" transform="rotate(1.0377 454.987 51.1737)" fill="#575757"/>
<rect x="455.303" y="7.17224" width="25" height="218.201" rx="10" transform="rotate(16.6017 455.303 7.17224)" fill="white"/>
<rect x="403.279" y="196.261" width="25" height="80.8207" rx="10" transform="rotate(37.4093 403.279 196.261)" fill="white"/>
<rect x="360.812" y="245.5" width="25" height="143.585" rx="10" transform="rotate(9.83393 360.812 245.5)" fill="white"/>
<circle cx="454.987" cy="51.1738" r="26" transform="rotate(1.0377 454.987 51.1738)" fill="#3F3F3F"/>
<rect x="339.46" y="338.069" width="36.4745" height="70.0156" transform="rotate(9.3416 339.46 338.069)" fill="#575757"/>
</g>
<defs>
<clipPath id="clip0_18_153">
<rect width="500" height="650" fill="white"/>
</clipPath>
</defs>
</svg>
