<svg width="496" height="471" viewBox="0 0 496 471" fill="none" xmlns="http://www.w3.org/2000/svg">
<circle cx="248.052" cy="222.905" r="200" transform="rotate(-16.2821 248.052 222.905)" fill="black"/>
<path d="M194.94 41.849C294.87 12.6614 399.541 70.0095 428.729 169.94C457.916 269.87 400.568 374.541 300.638 403.729C200.708 432.916 96.037 375.568 66.8491 275.638C37.6613 175.708 95.0095 71.0368 194.94 41.849ZM195.22 42.8089C95.82 71.8418 38.7761 175.957 67.809 275.358C96.8421 374.758 200.958 431.802 300.358 402.769C399.758 373.736 456.801 269.62 427.769 170.22C398.736 70.82 294.62 13.7761 195.22 42.8089ZM198.941 53.5073C292.245 26.2553 389.975 79.8005 417.227 173.104C444.479 266.407 390.934 364.137 297.63 391.39C204.327 418.642 106.597 365.097 79.3445 271.793C52.0924 178.489 105.638 80.7595 198.941 53.5073ZM199.222 54.4672C106.448 81.5645 53.2071 178.739 80.3044 271.513C107.402 364.286 204.576 417.527 297.35 390.43C390.123 363.332 443.364 266.158 416.267 173.384C389.17 80.611 291.995 27.37 199.222 54.4672ZM201.942 65.8464C288.619 40.5297 379.408 90.2721 404.724 176.949C430.041 263.626 380.299 354.415 293.622 379.731C206.945 405.048 116.156 355.305 90.8393 268.629C65.5227 181.952 115.265 91.1633 201.942 65.8464ZM202.222 66.8063C116.076 91.9683 66.6374 182.202 91.7992 268.348C116.961 354.495 207.195 403.933 293.341 378.772C379.488 353.61 428.926 263.376 403.764 177.229C378.603 91.0826 288.369 41.6445 202.222 66.8063ZM205.943 77.5047C285.993 54.1235 369.841 100.063 393.222 180.113C416.604 260.163 370.664 344.011 290.614 367.392C210.564 390.773 126.716 344.834 103.335 264.784C79.9538 184.734 125.893 100.886 205.943 77.5047ZM206.224 78.4645C126.704 101.691 81.0685 184.984 104.295 264.503C127.521 344.024 210.813 389.659 290.334 366.432C369.854 343.206 415.489 259.914 392.263 180.394C369.036 100.874 285.744 55.2383 206.224 78.4645ZM208.945 89.8435C282.368 68.3979 359.275 110.534 380.721 183.958C402.166 257.381 360.03 334.288 286.606 355.734C213.183 377.179 136.276 335.043 114.83 261.619C93.3848 188.196 135.521 111.289 208.945 89.8435ZM209.225 90.8034C136.332 112.094 94.4996 188.446 115.79 261.339C137.081 334.232 213.433 376.065 286.326 354.774C359.219 333.483 401.052 257.132 379.761 184.238C358.47 111.345 282.119 69.5126 209.225 90.8034ZM212.946 101.502C279.743 81.9917 349.709 120.325 369.219 187.122C388.729 253.919 350.395 323.885 283.599 343.395C216.802 362.905 146.836 324.571 127.326 257.774C107.816 190.978 146.149 121.012 212.946 101.502ZM213.227 102.462C146.96 121.817 108.931 191.227 128.286 257.494C147.641 323.761 217.051 361.79 283.318 342.435C349.585 323.08 387.614 253.669 368.259 187.402C348.904 121.136 279.493 83.1065 213.227 102.462ZM215.948 113.841C276.118 96.2662 339.143 130.797 356.717 190.967C374.292 251.137 339.761 314.162 279.591 331.736C219.421 349.311 156.396 314.78 138.822 254.61C121.247 194.44 155.778 131.415 215.948 113.841ZM216.228 114.8C156.588 132.22 122.362 194.69 139.781 254.33C157.201 313.97 219.671 348.196 279.311 330.776C338.951 313.357 373.177 250.887 355.757 191.247C338.338 131.607 275.868 97.3809 216.228 114.8Z" fill="white"/>
<circle cx="248.416" cy="229.416" r="60" transform="rotate(-16.2821 248.416 229.416)" fill="#3686FF"/>
<circle cx="247.582" cy="228.582" r="43.5822" stroke="#27C840" stroke-width="4"/>
<path d="M235.756 170C238.183 170 240.166 174.11 240.305 179.292C242.504 175.034 245.71 172.423 247.814 173.338C250.122 174.342 250.231 179.21 248.055 184.212C247.782 184.841 247.485 185.442 247.17 186.01C247.45 185.889 247.736 185.774 248.028 185.663C253.126 183.726 257.984 184.063 258.878 186.416C259.772 188.769 256.364 192.247 251.265 194.185C249.409 194.89 247.586 195.291 245.973 195.406C247.226 195.647 248.563 196.048 249.911 196.614C254.94 198.726 258.226 202.318 257.252 204.64C256.278 206.961 251.411 207.131 246.381 205.02C245.663 204.718 244.981 204.384 244.341 204.03C244.689 204.951 244.985 205.952 245.21 207.009C246.347 212.343 245.272 217.093 242.81 217.618C240.348 218.143 237.431 214.243 236.294 208.908C236.24 208.65 236.191 208.393 236.146 208.139C235.991 208.685 235.812 209.239 235.603 209.796C233.689 214.904 230.227 218.328 227.87 217.445C225.512 216.562 225.152 211.705 227.066 206.598C227.306 205.957 227.57 205.342 227.854 204.759C224.006 208.569 219.474 210.223 217.705 208.451C215.926 206.669 217.614 202.101 221.475 198.248C222.018 197.706 222.576 197.207 223.138 196.755C218.516 197.531 214.609 196.57 214.064 194.378C213.457 191.935 217.257 188.889 222.55 187.574C222.905 187.486 223.258 187.408 223.608 187.34C223.32 187.065 223.034 186.778 222.753 186.479C219.026 182.497 217.494 177.875 219.332 176.154C221.169 174.434 225.681 176.267 229.409 180.249C230.162 181.054 230.825 181.886 231.389 182.714C231.265 181.815 231.198 180.862 231.198 179.876C231.198 174.422 233.239 170 235.756 170ZM238.178 188.239C237.476 189.197 236.647 189.752 235.756 189.752C234.978 189.752 234.245 189.329 233.604 188.584C233.59 189.105 233.486 189.569 233.287 189.959C233.394 191.246 232.365 192.665 230.595 193.896C231.024 194.007 231.392 194.205 231.685 194.498C232.747 195.562 232.572 197.62 231.436 199.927C232.621 198.969 233.808 198.577 234.8 198.948C235.539 199.225 236.081 199.893 236.418 200.836C236.904 199.445 237.682 198.515 238.695 198.299C238.763 198.284 238.833 198.274 238.902 198.267C238.835 197.815 238.876 197.387 239.041 196.994C239.505 195.889 240.851 195.272 242.678 195.156C241.539 194.839 240.729 194.262 240.414 193.432C240.201 192.873 240.233 192.251 240.471 191.602C240.287 191.573 240.107 191.525 239.936 191.45C238.929 191.012 238.341 189.839 238.178 188.239Z" fill="#D4F541"/>
<circle cx="235.272" cy="194.311" r="10.6358" fill="#766B31"/>
<path fill-rule="evenodd" clip-rule="evenodd" d="M251.706 266.842C252.781 276.432 263.292 286.183 254.953 287.118C250.556 287.611 247.629 286.387 245.685 283.714C245.334 283.801 244.887 283.867 244.329 283.92C239.734 284.357 236.089 283.211 235.296 274.858C234.593 267.46 238.28 265.038 242.324 264.277C242.932 258.077 245.345 253.03 251.061 252.389C259.4 251.455 250.631 257.252 251.706 266.842Z" fill="#5B058A"/>
<path fill-rule="evenodd" clip-rule="evenodd" d="M259.97 254.295C264.153 254.612 269.599 257.935 269.187 263.373C269.13 264.124 269.151 264.92 269.217 265.732C273.33 269.265 281.276 271.178 278.507 274.215C275.68 277.315 262.244 280.976 258.214 277.301C254.421 273.841 253.422 270.674 255.675 267.728C254.134 265.813 253.151 263.852 253.279 262.168C253.691 256.729 255.786 253.978 259.97 254.295Z" fill="#5B058A"/>
<path d="M276.635 246.706C279.805 247.889 283.057 252.184 283.905 256.117C287.188 256.726 289.39 257.204 288.064 260.755C286.131 265.935 288.63 271.652 283.146 269.605C277.872 267.636 264.513 258.226 265.217 252.9C264.61 250.938 264.489 248.94 265.09 247.328C266.726 242.946 272.327 245.098 276.635 246.706Z" fill="#5B058A"/>
<path fill-rule="evenodd" clip-rule="evenodd" d="M286.866 231.708C290.638 231.874 297.271 236.512 296.994 242.799C296.962 243.531 296.963 244.257 296.98 244.971C298.544 247.019 298.869 249.308 297.232 252.514C297.098 253.692 296.719 254.503 295.852 254.777C291.894 260.495 291.815 256.2 288.342 251.897C287.531 251.239 286.773 250.487 286.126 249.655C285.818 249.405 285.49 249.161 285.143 248.927C278.185 244.236 271.821 248.303 276.98 240.649C280.228 235.831 281.725 234.662 284.125 235.627C284.29 233.201 284.892 231.621 286.866 231.708Z" fill="#5B058A"/>
<circle cx="247" cy="229" r="5" transform="rotate(-16.2821 247 229)" fill="black"/>
</svg>
