<svg width="139" height="381" viewBox="0 0 139 381" fill="none" xmlns="http://www.w3.org/2000/svg">
<path d="M114.598 7.14553C116.176 1.8529 121.746 -1.15844 127.038 0.419525L131.829 1.84735C137.122 3.42528 140.133 8.99511 138.555 14.2876L81.9266 204.228C81.6643 205.108 81.288 205.922 80.8247 206.665C80.4855 207.761 79.9517 208.817 79.2143 209.781L45.1391 254.334L24.7803 371.782C23.8368 377.223 18.6613 380.87 13.2198 379.926L8.29301 379.072C2.85146 378.129 -0.794707 372.953 0.148495 367.512L20.4508 250.385C20.135 248.159 20.5647 245.828 21.7958 243.801C22.4623 242.095 23.5724 240.643 24.9639 239.56L58.2978 195.976L114.598 7.14553Z" fill="white"/>
</svg>
